<svg width="613" height="565" viewBox="0 0 613 565" fill="none" xmlns="http://www.w3.org/2000/svg">
<path opacity="0.2" d="M122.873 272.589H448.851C454.558 293.915 473.812 309.651 496.685 309.651C524.013 309.651 546.236 287.15 546.236 259.483C546.236 231.815 524.013 209.315 496.685 209.315C474.508 209.315 455.718 224.112 449.408 244.498H404.404L303.724 53.2682C295.002 36.6865 278.021 0 259.463 0C240.904 0 223.923 36.6865 215.201 53.2682L184.44 111.704L110.624 251.92C108.351 256.289 108.444 261.503 110.949 265.777C113.454 270.005 117.955 272.589 122.826 272.589H122.873ZM496.639 237.405C508.655 237.405 518.445 247.317 518.445 259.483C518.445 271.649 508.655 281.561 496.639 281.561C484.622 281.561 474.833 271.649 474.833 259.483C474.833 247.317 484.622 237.405 496.639 237.405ZM195.204 151.068L204.112 134.157L239.698 66.5148C243.641 58.999 251.065 54.4895 259.463 54.4895C267.86 54.4895 275.284 58.999 279.227 66.5148L323.721 151.068L372.901 244.498H145.978L195.158 151.068H195.204ZM563.495 313.691C540.993 313.691 521.971 328.957 515.94 349.813H220.536C215.433 349.813 210.7 352.679 208.288 357.235L128.858 508.115C122.13 520.939 110.856 530.333 97.1229 534.514C83.3897 538.742 68.9142 537.286 56.248 530.474C43.5819 523.663 34.3027 512.248 30.1271 498.344C25.9515 484.487 27.3433 469.784 34.0708 456.96L57.2688 412.946C60.5629 413.651 63.9498 414.026 67.4295 414.026C94.7567 414.026 116.98 391.526 116.98 363.859C116.98 336.191 94.7567 313.691 67.4295 313.691C40.1022 313.691 17.8786 336.191 17.8786 363.859C17.8786 377.904 23.6317 390.587 32.8181 399.699L9.62007 443.761C-0.633448 463.208 -2.76766 485.52 3.58859 506.565C9.94484 527.609 24.0028 544.895 43.2108 555.276C55.1809 561.759 68.2182 565 81.4411 565C89.3748 565 97.4013 563.779 105.242 561.383C126.074 554.995 143.148 540.715 153.401 521.314L228.888 377.904H290.084L365.57 521.314C375.824 540.762 392.897 554.995 413.729 561.383C421.57 563.779 429.55 565 437.53 565C450.707 565 463.79 561.712 475.714 555.276C515.29 533.95 530.369 483.923 509.305 443.761L474.601 377.904H515.893C521.925 398.76 540.947 414.026 563.449 414.026C590.776 414.026 613 391.526 613 363.859C613 336.191 590.776 313.691 563.449 313.691H563.495ZM67.4759 341.828C79.4924 341.828 89.282 351.739 89.282 363.905C89.282 376.072 79.4924 385.983 67.4759 385.983C55.4593 385.983 45.6698 376.072 45.6698 363.905C45.6698 351.739 55.4593 341.828 67.4759 341.828ZM484.854 457.007C498.727 483.454 488.798 516.476 462.677 530.521C450.057 537.332 435.535 538.789 421.849 534.561C408.115 530.333 396.841 520.939 390.114 508.162L321.54 377.951H443.191L484.854 457.007ZM563.495 385.983C551.479 385.983 541.689 376.072 541.689 363.905C541.689 351.739 551.479 341.828 563.495 341.828C575.512 341.828 585.302 351.739 585.302 363.905C585.302 376.072 575.512 385.983 563.495 385.983Z" fill="url(#paint0_linear_207_14)"/>
<defs>
<linearGradient id="paint0_linear_207_14" x1="306.508" y1="578.2" x2="306.508" y2="16.8636" gradientUnits="userSpaceOnUse">
<stop stop-color="#1C75BC"/>
<stop offset="0.13" stop-color="#2384B9"/>
<stop offset="0.72" stop-color="#47C7AD"/>
<stop offset="1" stop-color="#55E2A9"/>
</linearGradient>
</defs>
</svg>
