<svg width="48" height="48" viewBox="0 0 48 48" fill="none" xmlns="http://www.w3.org/2000/svg">
<rect x="0.5" y="0.5" width="47" height="47" rx="23.5" stroke="#D6D6D6"/>
<path d="M19.5 14.5C19.5 13.9477 19.0523 13.5 18.5 13.5C17.9477 13.5 17.5 13.9477 17.5 14.5V15.5C17.5 16.0523 17.9477 16.5 18.5 16.5C19.0523 16.5 19.5 16.0523 19.5 15.5V14.5Z" fill="#BCC3D7"/>
<path d="M30.5 14.5C30.5 13.9477 30.0523 13.5 29.5 13.5C28.9477 13.5 28.5 13.9477 28.5 14.5V15.5C28.5 16.0523 28.9477 16.5 29.5 16.5C30.0523 16.5 30.5 16.0523 30.5 15.5V14.5Z" fill="#BCC3D7"/>
<path d="M14 21V32.5C14 33.6045 14.8955 34.5 16 34.5H32C33.1045 34.5 34 33.6045 34 32.5V21H14ZM20 31C20 31.5525 19.5525 32 19 32H18C17.4475 32 17 31.5525 17 31V30C17 29.4475 17.4475 29 18 29H19C19.5525 29 20 29.4475 20 30V31ZM20 25.5C20 26.0525 19.5525 26.5 19 26.5H18C17.4475 26.5 17 26.0525 17 25.5V24.5C17 23.9475 17.4475 23.5 18 23.5H19C19.5525 23.5 20 23.9475 20 24.5V25.5ZM25.5 31C25.5 31.5525 25.0525 32 24.5 32H23.5C22.9475 32 22.5 31.5525 22.5 31V30C22.5 29.4475 22.9475 29 23.5 29H24.5C25.0525 29 25.5 29.4475 25.5 30V31ZM25.5 25.5C25.5 26.0525 25.0525 26.5 24.5 26.5H23.5C22.9475 26.5 22.5 26.0525 22.5 25.5V24.5C22.5 23.9475 22.9475 23.5 23.5 23.5H24.5C25.0525 23.5 25.5 23.9475 25.5 24.5V25.5ZM31 31C31 31.5525 30.5525 32 30 32H29C28.4475 32 28 31.5525 28 31V30C28 29.4475 28.4475 29 29 29H30C30.5525 29 31 29.4475 31 30V31ZM31 25.5C31 26.0525 30.5525 26.5 30 26.5H29C28.4475 26.5 28 26.0525 28 25.5V24.5C28 23.9475 28.4475 23.5 29 23.5H30C30.5525 23.5 31 23.9475 31 24.5V25.5Z" fill="#BCC3D7"/>
<path d="M34 20V17C34 15.8955 33.1045 15 32 15H31.5V15.5C31.5 16.603 30.603 17.5 29.5 17.5C28.397 17.5 27.5 16.603 27.5 15.5V15H20.5V15.5C20.5 16.603 19.603 17.5 18.5 17.5C17.397 17.5 16.5 16.603 16.5 15.5V15H16C14.8955 15 14 15.8955 14 17V20H34Z" fill="#BCC3D7"/>
</svg>
