<svg width="49" height="49" viewBox="0 0 49 49" fill="none" xmlns="http://www.w3.org/2000/svg">
<g clip-path="url(#clip0_368_27)">
<path d="M48.5018 3.03296C48.1888 2.71204 47.7588 2.53212 47.3106 2.53451H1.68989C1.24163 2.53212 0.811661 2.71204 0.498685 3.03296C0.17777 3.34593 -0.00214797 3.77591 0.000237036 4.22416V39.7069C-0.00214797 40.1552 0.17777 40.5852 0.498685 40.8981C0.811661 41.219 1.24163 41.399 1.68989 41.3966H46.4658C47.8655 41.3966 49.0002 40.2618 49.0002 38.8621V4.22416C49.0026 3.77591 48.8227 3.34593 48.5018 3.03296Z" fill="#F3D55B"/>
<path d="M49 4.22417V38.8621C49 39.5342 48.7325 40.1786 48.2565 40.6531L44.7758 37.1724V6.75865L48.5015 3.03296C48.8225 3.34593 49.0024 3.77591 49 4.22417Z" fill="#F0C419"/>
<path d="M4.22413 6.75865V37.1724L0.498441 40.8981C0.177526 40.5852 -0.00239211 40.1552 -7.10433e-06 39.7069V4.22417C-0.00239211 3.77591 0.177526 3.34593 0.498441 3.03296L4.22413 6.75865Z" fill="#F0C419"/>
<path d="M48.2565 40.6531C47.7821 41.1291 47.1376 41.3966 46.4655 41.3966H1.68965C1.24139 41.3989 0.811419 41.219 0.498444 40.8981L4.22413 37.1724H44.7759L48.2565 40.6531Z" fill="#F29C1F"/>
<path d="M4.22414 6.75861H44.7759V37.1724H4.22414V6.75861Z" fill="#ECF0F1"/>
<path d="M44.7759 6.75861C44.7759 6.75861 4.22414 6.75861 4.22414 37.1724V6.75861H44.7759Z" fill="white"/>
<path d="M30.4138 12.6724H18.5862C18.1196 12.6724 17.7414 12.2942 17.7414 11.8276C17.7414 11.361 18.1196 10.9828 18.5862 10.9828H30.4138C30.8804 10.9828 31.2586 11.361 31.2586 11.8276C31.2586 12.2942 30.8804 12.6724 30.4138 12.6724Z" fill="#BDC3C7"/>
<path d="M21.9655 31.2586H10.1379C9.67133 31.2586 9.29309 30.8804 9.29309 30.4138C9.29309 29.9472 9.67133 29.569 10.1379 29.569H21.9655C22.4321 29.569 22.8103 29.9472 22.8103 30.4138C22.8103 30.8804 22.4321 31.2586 21.9655 31.2586Z" fill="#95A5A5"/>
<path d="M32.9483 16.8966H16.0517C15.5851 16.8966 15.2069 16.5183 15.2069 16.0517C15.2069 15.5852 15.5851 15.2069 16.0517 15.2069H32.9483C33.4149 15.2069 33.7931 15.5852 33.7931 16.0517C33.7931 16.5183 33.4149 16.8966 32.9483 16.8966Z" fill="#BDC3C7"/>
<path d="M29.5689 34.131L29.569 45.0969C29.5669 45.3912 29.7182 45.6654 29.9682 45.8206C30.2183 45.9758 30.5311 45.9897 30.794 45.8572L32.9905 44.7505C33.2302 44.6323 33.5112 44.6323 33.7509 44.7505L35.9474 45.8572C36.2102 45.9897 36.5231 45.9758 36.7731 45.8206C37.0232 45.6654 37.1745 45.3912 37.1724 45.0969L37.1724 34.131H29.5689Z" fill="#FF5364"/>
<path d="M21.9655 27.8793C19.8968 27.8794 17.8631 27.3457 16.061 26.3299C14.2559 27.3549 12.2137 27.8891 10.1379 27.8793C9.67133 27.8793 9.29309 27.5011 9.29309 27.0345C9.29309 26.5679 9.67133 26.1897 10.1379 26.1897C11.6522 26.1964 13.1491 25.8672 14.5209 25.2257C13.6441 24.5535 13.0832 23.5495 12.9706 22.4505C12.9706 21.9436 13.1928 20.2759 16.0517 20.2759C18.9106 20.2759 19.1328 21.9402 19.1328 22.4505C19.0208 23.5509 18.4603 24.5566 17.5834 25.2308C18.9556 25.8693 20.452 26.1968 21.9655 26.1897C22.4321 26.1897 22.8103 26.5679 22.8103 27.0345C22.8103 27.5011 22.4321 27.8793 21.9655 27.8793ZM16.0517 21.9655C15.4096 21.9655 14.6603 22.0923 14.6603 22.4505C14.6603 22.8087 15.0396 23.5302 16.045 24.304C16.9439 23.6163 17.4431 22.8974 17.4431 22.4505C17.4431 22.0923 16.6938 21.9655 16.0517 21.9655Z" fill="#95A5A5"/>
<path d="M41.3965 28.3017C41.3965 29.2758 39.5776 29.8799 39.2262 30.7272C38.8621 31.605 39.7069 33.3158 39.0454 33.9773C38.3839 34.6388 36.6731 33.794 35.7962 34.1572C34.9488 34.5087 34.3448 36.3276 33.3707 36.3276C32.3966 36.3276 31.7925 34.5087 30.9452 34.1572C30.0674 33.7931 28.3566 34.6379 27.6951 33.9764C27.0336 33.3149 27.8785 31.6042 27.5152 30.7272C27.1637 29.8799 25.3448 29.2758 25.3448 28.3017C25.3448 27.3277 27.1637 26.7236 27.5152 25.8762C27.8793 24.9985 27.0345 23.2877 27.696 22.6262C28.3575 21.9647 30.0683 22.8095 30.9452 22.4462C31.79 22.0948 32.3966 20.2759 33.3707 20.2759C34.3448 20.2759 34.9488 22.0948 35.7962 22.4462C36.674 22.8104 38.3847 21.9655 39.0462 22.627C39.7077 23.2885 38.8629 24.9993 39.2262 25.8762C39.5776 26.7236 41.3965 27.3277 41.3965 28.3017Z" fill="#FB7B76"/>
<path d="M33.3707 31.2586C35.0037 31.2586 36.3276 29.9348 36.3276 28.3017C36.3276 26.6687 35.0037 25.3448 33.3707 25.3448C31.7376 25.3448 30.4138 26.6687 30.4138 28.3017C30.4138 29.9348 31.7376 31.2586 33.3707 31.2586Z" fill="#DF4D60"/>
</g>
<defs>
<clipPath id="clip0_368_27">
<rect width="49" height="49" fill="white"/>
</clipPath>
</defs>
</svg>
