<svg id="Layer_1" enable-background="new 0 0 100 100" viewBox="0 0 100 100" xmlns="http://www.w3.org/2000/svg" xmlns:xlink="http://www.w3.org/1999/xlink"><linearGradient id="SVGID_1_" gradientUnits="userSpaceOnUse" x1="-.053" x2="91.964" y1="-4.849" y2="95.991"><stop offset="0" stop-color="#97e0ff"/><stop offset="1" stop-color="#1075ff"/></linearGradient><path clip-rule="evenodd" d="m49.9876099 2.5000751c-26.3174324 0-47.4876099 21.1701775-47.4876099 47.5119438 0 26.3177299 21.1701794 47.4879036 47.4876099 47.4879036 26.3422165.0000012 47.5123901-21.1701724 47.5123901-47.4879024 0-26.3417683-21.1701736-47.511945-47.5123901-47.511945zm25.8100204 42.7753384-29.8215027 26.486763c-3.2627602 2.9000549-8.2890625 2.6100616-11.1889648-.67659-.1693344-.1933746-.3386688-.4107971-.5079994-.6283646l-11.2615376-15.7084464c-2.5618286-3.5524559-1.7399426-8.4825859 1.8125134-11.0442657 3.5282631-2.5616798 8.4825859-1.7399406 11.0444107 1.8125153l6.1626625 8.5551567 23.2481956-20.6385766c1.57061-1.4017181 3.6250305-2.1025047 5.7272339-1.9817009 2.0786133.1208057 4.0604553 1.0633469 5.4375458 2.6342506 2.9246826 3.2624665 2.6102066 8.2650185-.6525574 11.1892586z" fill="url(#SVGID_1_)" fill-rule="evenodd"/></svg>