<svg width="48" height="48" viewBox="0 0 48 48" fill="none" xmlns="http://www.w3.org/2000/svg">
<rect x="0.5" y="0.5" width="47" height="47" rx="23.5" stroke="#D6D6D6"/>
<path d="M18.4456 27.489C18.6956 25.503 19.99 23.8379 21.7597 23.0621C19.8075 21.1128 21.2111 17.6918 24 17.6984C26.7888 17.6918 28.1926 21.1133 26.2402 23.0621C28.0099 23.8378 29.3044 25.503 29.5544 27.489H34.4937V17.5984C34.4937 16.3802 33.5026 15.389 32.2844 15.389H15.7156C14.4974 15.389 13.5063 16.3802 13.5063 17.5984V27.489H18.4456Z" fill="#BCC3D7"/>
<path d="M19.8671 27.489H21.7406C21.927 27.489 22.1058 27.5631 22.2377 27.6949C22.3463 27.8034 22.4964 27.8656 22.6497 27.8656H25.3503C25.5036 27.8656 25.6538 27.8034 25.7622 27.695C25.894 27.5631 26.073 27.489 26.2594 27.489H28.1329C27.2659 22.8658 20.7324 22.869 19.8671 27.489Z" fill="#BCC3D7"/>
<path d="M25.7446 20.8492C25.7446 19.8873 24.962 19.1047 24 19.1047C21.6888 19.1924 21.6895 22.5064 24 22.5937C24.9619 22.5937 25.7446 21.8111 25.7446 20.8492Z" fill="#BCC3D7"/>
<path d="M35.2969 28.8953H26.5155C26.1786 29.1398 25.7745 29.2719 25.3503 29.2719H22.6497C22.2255 29.2719 21.8215 29.1399 21.4846 28.8953H12.7032C12.3149 28.8953 12.0001 29.2101 12.0001 29.5984V30.4015C12 31.6333 12.9996 32.6109 14.2094 32.6109H33.7906C35.0004 32.6109 36 31.6333 36 30.4015V29.5984C36 29.2101 35.6852 28.8953 35.2969 28.8953Z" fill="#BCC3D7"/>
</svg>
