<svg width="48" height="48" viewBox="0 0 48 48" fill="none" xmlns="http://www.w3.org/2000/svg">
<path d="M41.3276 37.5419C41.3276 37.5419 39.0103 39.818 38.4424 40.4852C37.5173 41.4724 36.4274 41.9386 34.9985 41.9386C34.8611 41.9386 34.7145 41.9386 34.5772 41.9294C31.8568 41.7558 29.3288 40.6955 27.4328 39.7905C22.2486 37.286 17.6964 33.7303 13.9136 29.2239C10.7902 25.4671 8.70186 21.9936 7.31879 18.2642C6.46697 15.9882 6.15555 14.2149 6.29294 12.5422C6.38454 11.4727 6.79671 10.5861 7.55694 9.82738L10.6803 6.71041C11.1291 6.28993 11.6054 6.06142 12.0725 6.06142C12.6496 6.06142 13.1167 6.40876 13.4098 6.70126C13.419 6.71041 13.4281 6.71955 13.4373 6.72869C13.996 7.24971 14.5272 7.78901 15.086 8.36487C15.3699 8.65737 15.663 8.94987 15.9561 9.25151L18.4566 11.7469C19.4275 12.7158 19.4275 13.6116 18.4566 14.5805C18.191 14.8456 17.9345 15.1107 17.6689 15.3666C16.8995 16.1527 17.5039 15.5496 16.7071 16.2625C16.6887 16.2808 16.6704 16.29 16.6613 16.3082C15.8735 17.0943 16.0201 17.8622 16.185 18.3832C16.1941 18.4106 16.2033 18.438 16.2124 18.4654C16.8628 20.0376 17.7787 21.5184 19.1709 23.2826L19.1801 23.2917C21.7081 26.3995 24.3735 28.8218 27.3136 30.6774C27.6892 30.915 28.0739 31.107 28.4402 31.2898C28.77 31.4543 29.0814 31.6097 29.347 31.7743C29.3837 31.7925 29.4203 31.82 29.4569 31.8382C29.7684 31.9936 30.0615 32.0668 30.3637 32.0668C31.1239 32.0668 31.6002 31.5915 31.7559 31.4361L33.5513 29.6444C33.8627 29.3336 34.3573 28.9588 34.9344 28.9588C35.5023 28.9588 35.9694 29.3153 36.2533 29.6261C36.2625 29.6352 36.2625 29.6352 36.2716 29.6444L41.3185 34.6809C42.2619 35.6132 41.3276 37.5419 41.3276 37.5419Z" stroke="url(#paint0_linear_117_356)" stroke-width="4" stroke-linecap="round" stroke-linejoin="round"/>
<defs>
<linearGradient id="paint0_linear_117_356" x1="24.0014" y1="42.7768" x2="24.0014" y2="7.13224" gradientUnits="userSpaceOnUse">
<stop stop-color="#1C75BC"/>
<stop offset="0.13" stop-color="#2384B9"/>
<stop offset="0.72" stop-color="#47C7AD"/>
<stop offset="1" stop-color="#55E2A9"/>
</linearGradient>
</defs>
</svg>
