<svg width="214" height="34" viewBox="0 0 214 34" fill="none" xmlns="http://www.w3.org/2000/svg">
<g clip-path="url(#clip0_6_776)">
<path d="M7.38382 16.3505H26.9755C27.3185 17.6297 28.4757 18.5736 29.8504 18.5736C31.4928 18.5736 32.8285 17.224 32.8285 15.5644C32.8285 13.9049 31.4928 12.5552 29.8504 12.5552C28.5175 12.5552 27.3882 13.4428 27.009 14.6656H24.3042L18.2532 3.19516C17.729 2.20055 16.7084 0 15.593 0C14.4776 0 13.4571 2.20055 12.9328 3.19516L11.0841 6.70026L6.64767 15.1108C6.51103 15.3728 6.51661 15.6856 6.66719 15.942C6.81776 16.1956 7.08824 16.3505 7.38103 16.3505H7.38382ZM29.8476 14.2402C30.5698 14.2402 31.1582 14.8347 31.1582 15.5644C31.1582 16.2942 30.5698 16.8887 29.8476 16.8887C29.1254 16.8887 28.537 16.2942 28.537 15.5644C28.537 14.8347 29.1254 14.2402 29.8476 14.2402ZM11.731 9.06141L12.2664 8.04707L14.4051 3.98972C14.6422 3.53891 15.0883 3.26842 15.593 3.26842C16.0977 3.26842 16.5439 3.53891 16.7809 3.98972L19.455 9.06141L22.4108 14.6656H8.77247L11.7282 9.06141H11.731ZM33.8658 18.8159C32.5134 18.8159 31.3701 19.7317 31.0076 20.9827H13.2535C12.9468 20.9827 12.6624 21.1546 12.5174 21.4279L7.74353 30.478C7.33921 31.2472 6.66161 31.8107 5.83623 32.0615C5.01084 32.3151 4.14085 32.2277 3.3796 31.8192C2.61835 31.4106 2.06066 30.7259 1.8097 29.8919C1.55874 29.0607 1.64239 28.1788 2.04672 27.4096L3.44094 24.7695C3.63892 24.8118 3.84248 24.8343 4.05162 24.8343C5.69402 24.8343 7.02969 23.4847 7.02969 21.8251C7.02969 20.1656 5.69402 18.8159 4.05162 18.8159C2.40922 18.8159 1.07355 20.1656 1.07355 21.8251C1.07355 22.6676 1.41931 23.4284 1.97143 23.975L0.577201 26.6179C-0.0390475 27.7844 -0.167316 29.1227 0.214702 30.385C0.59672 31.6473 1.44162 32.6842 2.59604 33.3069C3.31546 33.6957 4.09902 33.8901 4.89373 33.8901C5.37056 33.8901 5.85296 33.8169 6.32421 33.6732C7.57622 33.29 8.60238 32.4334 9.21862 31.2697L13.7554 22.6676H17.4334L21.9702 31.2697C22.5865 32.4362 23.6126 33.29 24.8646 33.6732C25.3359 33.8169 25.8155 33.8901 26.2951 33.8901C27.087 33.8901 27.8734 33.6929 28.59 33.3069C30.9686 32.0277 31.8748 29.0269 30.6089 26.6179L28.5231 22.6676H31.0048C31.3673 23.9186 32.5106 24.8343 33.863 24.8343C35.5054 24.8343 36.8411 23.4847 36.8411 21.8251C36.8411 20.1656 35.5054 18.8159 33.863 18.8159H33.8658ZM4.0544 20.5037C4.77661 20.5037 5.36498 21.0982 5.36498 21.828C5.36498 22.5577 4.77661 23.1522 4.0544 23.1522C3.33219 23.1522 2.74383 22.5577 2.74383 21.828C2.74383 21.0982 3.33219 20.5037 4.0544 20.5037ZM29.1393 27.4124C29.9731 28.9988 29.3764 30.9795 27.8065 31.822C27.048 32.2305 26.1752 32.3179 25.3526 32.0643C24.5272 31.8107 23.8496 31.2472 23.4453 30.4808L19.324 22.6704H26.6353L29.1393 27.4124ZM33.8658 23.1522C33.1436 23.1522 32.5552 22.5577 32.5552 21.828C32.5552 21.0982 33.1436 20.5037 33.8658 20.5037C34.588 20.5037 35.1764 21.0982 35.1764 21.828C35.1764 22.5577 34.588 23.1522 33.8658 23.1522Z" fill="url(#paint0_linear_6_776)"/>
<path d="M43.5972 12.8934C43.31 13.2427 42.9531 13.4174 42.532 13.4174C42.1472 13.4174 41.8209 13.2822 41.5533 13.0089C41.2856 12.7384 41.1489 12.4087 41.1489 12.0199C41.1489 11.6705 41.2437 11.3888 41.4361 11.1774L48.4352 1.66521C48.7614 1.22003 49.1936 0.856561 49.7318 0.574801C50.27 0.293041 50.8444 0.152161 51.4578 0.152161C52.0323 0.152161 52.5816 0.278953 53.0975 0.529719C53.6161 0.783303 54.0372 1.12987 54.3634 1.57787L61.3596 11.0309C61.474 11.1662 61.5716 11.3183 61.6469 11.4817C61.7221 11.648 61.7612 11.8255 61.7612 12.0199C61.7612 12.4087 61.6273 12.7384 61.3569 13.0089C61.0864 13.2794 60.7629 13.4174 60.3781 13.4174C59.918 13.4174 59.5527 13.2343 59.285 12.8652L52.576 3.81786C52.4422 3.66289 52.2749 3.49384 52.0713 3.30787C51.8705 3.12473 51.6642 3.03175 51.4523 3.03175C51.2403 3.03175 51.034 3.12473 50.8332 3.30787C50.6325 3.49102 50.4735 3.66289 50.3592 3.81786L43.5944 12.8934H43.5972Z" fill="#C2F8F8"/>
<path d="M49.6733 10.2758C49.6733 9.77145 49.8462 9.34599 50.192 8.99661C50.5378 8.64723 50.9588 8.47253 51.4579 8.47253C51.9571 8.47253 52.3781 8.64723 52.7239 8.99661C53.0697 9.34599 53.2426 9.77145 53.2426 10.2758C53.2426 10.7802 53.0697 11.2056 52.7239 11.555C52.3781 11.9044 51.9571 12.0791 51.4579 12.0791C50.9588 12.0791 50.5378 11.9044 50.192 11.555C49.8462 11.2056 49.6733 10.7802 49.6733 10.2758Z" fill="#C2F8F8"/>
<path d="M83.2102 1.14114C83.4779 1.41163 83.6145 1.74129 83.6145 2.13011C83.6145 2.51894 83.4807 2.8486 83.2102 3.11909C82.9397 3.38958 82.6163 3.52765 82.2315 3.52765H73.7099V12.0227C73.7099 12.4115 73.5761 12.7412 73.3056 13.0117C73.0351 13.2822 72.7117 13.4202 72.3269 13.4202C71.9421 13.4202 71.6158 13.285 71.3481 13.0117C71.0804 12.7412 70.9438 12.4115 70.9438 12.0227V3.52483H62.3079C61.9622 3.48538 61.6638 3.33605 61.4156 3.07401C61.1647 2.81197 61.042 2.4964 61.042 2.1273C61.042 1.73847 61.1758 1.40881 61.4463 1.13832C61.7168 0.867829 62.0403 0.729767 62.4251 0.729767H82.2315C82.6163 0.729767 82.9425 0.865012 83.2102 1.13832V1.14114Z" fill="#C2F8F8"/>
<path d="M86.4922 2.1301C86.4922 1.74128 86.626 1.41162 86.8965 1.14113C87.1642 0.870637 87.4905 0.732574 87.8753 0.732574H108.287C108.672 0.732574 108.998 0.867819 109.266 1.14113C109.533 1.41162 109.67 1.74128 109.67 2.1301C109.67 2.51893 109.536 2.84859 109.266 3.11908C108.995 3.38957 108.672 3.52764 108.287 3.52764H87.8753C87.4905 3.52764 87.1642 3.39239 86.8965 3.11908C86.6288 2.84859 86.4922 2.51893 86.4922 2.1301Z" fill="#C2F8F8"/>
<path d="M90.0056 13.4174C89.5846 13.4174 89.1607 13.3245 88.7397 13.1413C88.3186 12.9582 87.9422 12.7018 87.6159 12.3693C87.2897 12.0396 87.022 11.6423 86.8101 11.1774C86.5982 10.7125 86.4922 10.1885 86.4922 9.60803V6.99048C86.4922 6.46641 86.64 6.11703 86.9383 5.94233C87.2367 5.76764 87.7024 5.6803 88.3354 5.6803H107.654C108.039 5.6803 108.365 5.81554 108.633 6.08885C108.9 6.35934 109.037 6.689 109.037 7.07783C109.037 7.46666 108.903 7.79632 108.633 8.06681C108.362 8.3373 108.039 8.47536 107.654 8.47536H89.2583V9.90107C89.2583 10.0955 89.3392 10.2645 89.5037 10.4111C89.6655 10.5576 89.8829 10.628 90.1506 10.628H108.287C108.672 10.628 108.998 10.7633 109.266 11.0366C109.533 11.307 109.67 11.6367 109.67 12.0255C109.67 12.4144 109.536 12.744 109.266 13.0145C108.998 13.285 108.672 13.4231 108.287 13.4231H90.0056V13.4174Z" fill="#C2F8F8"/>
<path d="M112.547 7.075C112.547 6.3396 112.667 5.59575 112.907 4.84909C113.147 4.10243 113.498 3.42338 113.958 2.81196C114.418 2.20054 114.976 1.70183 115.629 1.313C116.281 0.924171 117.02 0.732574 117.845 0.732574H134.629C135.014 0.732574 135.34 0.867819 135.608 1.14113C135.876 1.41162 136.012 1.74128 136.012 2.1301C136.012 2.51893 135.878 2.84859 135.608 3.11908C135.337 3.38957 135.014 3.52764 134.629 3.52764H118.451C117.779 3.52764 117.238 3.64879 116.825 3.89111C116.412 4.13342 116.086 4.42927 115.846 4.77865C115.606 5.12803 115.442 5.51123 115.355 5.92823C115.269 6.34524 115.227 6.72843 115.227 7.07781C115.227 7.4272 115.269 7.81039 115.355 8.22739C115.442 8.6444 115.604 9.02759 115.846 9.37698C116.086 9.72636 116.412 10.0222 116.825 10.2645C117.238 10.5068 117.779 10.628 118.451 10.628H134.629C135.014 10.628 135.34 10.7632 135.608 11.0365C135.876 11.307 136.012 11.6367 136.012 12.0255C136.012 12.4144 135.878 12.744 135.608 13.0145C135.337 13.285 135.014 13.4231 134.629 13.4231H117.558C116.772 13.4231 116.072 13.2286 115.456 12.8398C114.842 12.451 114.318 11.9523 113.886 11.3408C113.454 10.7294 113.122 10.0447 112.893 9.28963C112.664 8.53451 112.547 7.7963 112.547 7.07781V7.075Z" fill="#C2F8F8"/>
<path d="M161.027 13.0089C160.76 13.2794 160.433 13.4174 160.049 13.4174C159.664 13.4174 159.338 13.2822 159.07 13.0089C158.802 12.7384 158.666 12.4087 158.666 12.0199V8.47253H141.65V12.0199C141.65 12.4087 141.517 12.7384 141.246 13.0089C140.976 13.2794 140.652 13.4174 140.267 13.4174C139.883 13.4174 139.556 13.2822 139.289 13.0089C139.021 12.7384 138.884 12.4087 138.884 12.0199V2.13011C138.884 1.74128 139.018 1.41162 139.289 1.14113C139.556 0.870637 139.883 0.732574 140.267 0.732574C140.652 0.732574 140.978 0.867819 141.246 1.14113C141.514 1.41162 141.65 1.74128 141.65 2.13011V5.68028H158.666V2.13011C158.666 1.74128 158.799 1.41162 159.07 1.14113C159.34 0.870637 159.664 0.732574 160.049 0.732574C160.433 0.732574 160.76 0.867819 161.027 1.14113C161.295 1.41162 161.432 1.74128 161.432 2.13011V12.0199C161.432 12.4087 161.298 12.7384 161.027 13.0089Z" fill="#C2F8F8"/>
<path d="M184.317 1.14113C184.584 0.870637 184.911 0.732574 185.295 0.732574C185.68 0.732574 186.007 0.867819 186.274 1.14113C186.542 1.41162 186.679 1.74128 186.679 2.13011V10.5942C186.679 11.3887 186.414 12.0593 185.887 12.6003C185.36 13.1441 184.702 13.4146 183.915 13.4146C183.645 13.4146 183.383 13.3752 183.123 13.2991C182.864 13.223 182.63 13.1159 182.418 12.9779L169.234 4.83218C168.869 4.61805 168.568 4.44899 168.328 4.3222C168.088 4.19541 167.89 4.13342 167.737 4.13342C167.449 4.13342 167.265 4.31656 167.19 4.68567C167.112 5.05478 167.076 5.5873 167.076 6.28607V12.0171C167.076 12.4059 166.942 12.7356 166.671 13.006C166.404 13.2765 166.077 13.4146 165.693 13.4146C165.308 13.4146 164.982 13.2794 164.714 13.006C164.446 12.7356 164.31 12.4059 164.31 12.0171V3.55581C164.31 2.76125 164.572 2.09066 165.101 1.54968C165.629 1.00588 166.287 0.735392 167.073 0.735392C167.341 0.735392 167.606 0.774839 167.865 0.850914C168.124 0.926989 168.358 1.03406 168.57 1.17212L181.757 9.31781C182.122 9.53195 182.423 9.701 182.663 9.82779C182.903 9.95459 183.098 10.0166 183.254 10.0166C183.542 10.0166 183.726 9.83343 183.801 9.46432C183.876 9.09522 183.915 8.56269 183.915 7.86392V2.13011C183.915 1.74128 184.049 1.41162 184.32 1.14113H184.317Z" fill="#C2F8F8"/>
<path d="M212.991 7.07501C212.991 7.81322 212.871 8.55425 212.631 9.30091C212.391 10.0476 212.04 10.7266 211.58 11.338C211.12 11.9495 210.562 12.4482 209.909 12.837C209.257 13.2258 208.518 13.4202 207.693 13.4202H194.565C193.778 13.3808 193.078 13.1638 192.462 12.7666C191.849 12.3693 191.324 11.8706 190.892 11.2676C190.46 10.6646 190.128 9.99686 189.899 9.26147C189.671 8.52607 189.554 7.79631 189.554 7.08064C189.554 6.36497 189.674 5.6014 189.913 4.85474C190.153 4.10807 190.505 3.42903 190.965 2.81761C191.425 2.20619 191.982 1.70748 192.635 1.31865C193.287 0.929817 194.026 0.73822 194.852 0.73822H207.98C208.766 0.777667 209.466 0.994622 210.082 1.3919C210.696 1.78919 211.22 2.29072 211.652 2.89087C212.084 3.49102 212.416 4.16161 212.645 4.897C212.876 5.63521 212.991 6.36215 212.991 7.07782V7.07501ZM208.702 10.2589C209.123 10.0166 209.455 9.72073 209.695 9.37135C209.935 9.02197 210.099 8.63878 210.185 8.22177C210.272 7.80477 210.314 7.42157 210.314 7.07219C210.314 6.72281 210.272 6.33961 210.185 5.92261C210.099 5.5056 209.935 5.12241 209.695 4.77303C209.455 4.42364 209.123 4.1278 208.702 3.88548C208.281 3.64317 207.743 3.52201 207.09 3.52201H195.46C194.788 3.52201 194.247 3.64317 193.834 3.88548C193.421 4.1278 193.095 4.42364 192.855 4.77303C192.615 5.12241 192.451 5.5056 192.364 5.92261C192.278 6.33961 192.236 6.72281 192.236 7.07219C192.236 7.42157 192.278 7.80477 192.364 8.22177C192.451 8.63878 192.613 9.02197 192.855 9.37135C193.095 9.72073 193.421 10.0166 193.834 10.2589C194.247 10.5012 194.788 10.6224 195.46 10.6224H207.09C207.743 10.6224 208.281 10.5012 208.702 10.2589Z" fill="#C2F8F8"/>
<path d="M41.81 32.7546H49.2134V33.8929H40.5078V21.4561H48.9485V22.5944H41.81V32.7575V32.7546ZM41.6706 27.0152H48.1761V28.1338H41.6706V27.0152Z" fill="#AEAEAE"/>
<path d="M63.5458 24.4737C64.2959 24.4737 64.9484 24.6202 65.5061 24.9076C66.0638 25.1978 66.496 25.6402 66.8083 26.2319C67.1178 26.8236 67.274 27.5702 67.274 28.4719V33.8901H66.0247V28.5958C66.0247 27.6125 65.7933 26.8687 65.3304 26.3671C64.8675 25.8628 64.2122 25.612 63.3701 25.612C62.7372 25.612 62.1878 25.7444 61.7249 26.0121C61.2621 26.2798 60.9051 26.663 60.6514 27.1673C60.4004 27.6717 60.2722 28.2775 60.2722 28.9875V33.8929H59.0229V28.5987C59.0229 27.6153 58.7887 26.8715 58.3202 26.3699C57.8518 25.8656 57.1937 25.6148 56.3516 25.6148C55.7298 25.6148 55.186 25.7473 54.7148 26.0149C54.2463 26.2826 53.8866 26.6658 53.6329 27.1701C53.3819 27.6745 53.2536 28.2803 53.2536 28.9903V33.8958H52.0044V24.5667H53.2006V27.0884L53.0082 26.6432C53.2899 25.967 53.7444 25.4373 54.3718 25.0541C54.9992 24.6681 55.7409 24.4765 56.597 24.4765C57.5004 24.4765 58.2673 24.7047 58.9002 25.1612C59.5332 25.6176 59.9431 26.3023 60.13 27.2124L59.6364 27.018C59.9069 26.2601 60.3837 25.6486 61.0697 25.1781C61.7556 24.7104 62.5782 24.4765 63.5402 24.4765L63.5458 24.4737Z" fill="#AEAEAE"/>
<path d="M70.668 33.8929V20.7094H71.9172V27.3195L71.7415 29.2016L71.8642 31.0838V33.8901H70.668V33.8929ZM75.4334 33.9803C74.6248 33.9803 73.897 33.7943 73.2529 33.4196C72.6087 33.0477 72.0984 32.5039 71.722 31.7938C71.3456 31.0838 71.1587 30.2244 71.1587 29.2185C71.1587 28.2127 71.3484 27.3392 71.7304 26.632C72.1124 25.9276 72.6255 25.3922 73.2696 25.0231C73.9137 24.6568 74.6359 24.4737 75.4334 24.4737C76.3118 24.4737 77.1009 24.6709 77.7981 25.0682C78.4952 25.4655 79.0445 26.0177 79.4432 26.7306C79.842 27.4434 80.04 28.2718 80.04 29.2185C80.04 30.1653 79.842 30.9795 79.4432 31.698C79.0445 32.4137 78.4952 32.9744 77.7981 33.3773C77.1009 33.7802 76.3118 33.9803 75.4334 33.9803ZM75.3442 32.8617C75.9995 32.8617 76.5879 32.7095 77.1037 32.4081C77.6196 32.1066 78.0295 31.6783 78.3362 31.1289C78.6402 30.5766 78.7935 29.9427 78.7935 29.2185C78.7935 28.4944 78.6402 27.8435 78.3362 27.2998C78.0323 26.756 77.6196 26.3305 77.1037 26.029C76.5879 25.7275 76.0023 25.5754 75.3442 25.5754C74.6861 25.5754 74.0978 25.7275 73.5763 26.029C73.0549 26.3305 72.645 26.756 72.3466 27.2998C72.0483 27.8435 71.8977 28.4831 71.8977 29.2185C71.8977 29.9539 72.0483 30.5766 72.3466 31.1289C72.645 31.6811 73.0549 32.1066 73.5763 32.4081C74.0978 32.7095 74.6861 32.8617 75.3442 32.8617Z" fill="#AEAEAE"/>
<path d="M86.5119 33.9803C85.5499 33.9803 84.7078 33.7746 83.98 33.3689C83.2522 32.9603 82.6834 32.3968 82.2735 31.6811C81.8636 30.9655 81.6572 30.1427 81.6572 29.2214C81.6572 28.3 81.8524 27.4801 82.2456 26.7701C82.6388 26.06 83.1769 25.4993 83.8629 25.0908C84.5489 24.6822 85.3185 24.4765 86.1745 24.4765C87.0306 24.4765 87.8113 24.6738 88.4862 25.071C89.161 25.4683 89.6908 26.0234 90.0784 26.7419C90.466 27.4576 90.6584 28.2859 90.6584 29.2214C90.6584 29.2805 90.6556 29.3425 90.65 29.4073C90.6444 29.4721 90.6416 29.5398 90.6416 29.613H82.6053V28.6719H89.9724L89.4788 29.0439C89.4788 28.3676 89.3338 27.7675 89.0494 27.2406C88.7622 26.7137 88.3718 26.3023 87.8811 26.0065C87.3875 25.7106 86.8187 25.5613 86.1745 25.5613C85.5304 25.5613 84.9727 25.7106 84.468 26.0065C83.9633 26.3023 83.5701 26.7165 83.2913 27.2491C83.0096 27.7816 82.8702 28.393 82.8702 29.0805V29.2749C82.8702 29.9849 83.0264 30.6105 83.3359 31.1486C83.6454 31.6868 84.0804 32.1066 84.6381 32.4109C85.1958 32.7152 85.8315 32.8645 86.5454 32.8645C87.1087 32.8645 87.6329 32.7631 88.1181 32.563C88.6033 32.363 89.0243 32.0531 89.3757 31.6389L90.0784 32.456C89.6685 32.9547 89.1554 33.3323 88.5391 33.5943C87.9229 33.8563 87.2481 33.9859 86.5091 33.9859L86.5119 33.9803Z" fill="#AEAEAE"/>
<path d="M96.8878 33.9803C96.0094 33.9803 95.2203 33.7803 94.5232 33.3773C93.8261 32.9744 93.2767 32.4137 92.878 31.698C92.4792 30.9824 92.2812 30.154 92.2812 29.2186C92.2812 28.2831 92.4792 27.4407 92.878 26.7306C93.2767 26.0206 93.8233 25.4655 94.5232 25.0682C95.2203 24.6709 96.0094 24.4737 96.8878 24.4737C97.6964 24.4737 98.4214 24.6569 99.06 25.0231C99.6985 25.3894 100.209 25.9276 100.591 26.632C100.973 27.3364 101.162 28.1986 101.162 29.2186C101.162 30.2385 100.976 31.0838 100.599 31.7938C100.223 32.5039 99.7181 33.0477 99.0795 33.4196C98.4409 33.7915 97.7104 33.9803 96.8906 33.9803H96.8878ZM96.977 32.8617C97.6323 32.8617 98.2234 32.7096 98.7449 32.4081C99.2663 32.1066 99.6762 31.6783 99.9746 31.1289C100.273 30.5766 100.424 29.9427 100.424 29.2186C100.424 28.4944 100.273 27.8436 99.9746 27.2998C99.6762 26.756 99.2635 26.3305 98.7449 26.029C98.2234 25.7275 97.6351 25.5754 96.977 25.5754C96.3189 25.5754 95.7529 25.7275 95.237 26.029C94.7211 26.3305 94.3112 26.756 94.0073 27.2998C93.7034 27.8436 93.55 28.4832 93.55 29.2186C93.55 29.954 93.7034 30.5766 94.0073 31.1289C94.3112 31.6811 94.7211 32.1066 95.237 32.4081C95.7529 32.7096 96.3329 32.8617 96.977 32.8617ZM100.46 33.893V31.0866L100.582 29.2045L100.407 27.3223V20.7122H101.656V33.8958H100.46V33.893Z" fill="#AEAEAE"/>
<path d="M108.808 33.9803C107.93 33.9803 107.141 33.7803 106.444 33.3773C105.746 32.9744 105.197 32.4137 104.798 31.698C104.4 30.9824 104.202 30.154 104.202 29.2186C104.202 28.2831 104.4 27.4407 104.798 26.7306C105.197 26.0206 105.744 25.4655 106.444 25.0682C107.141 24.6709 107.93 24.4737 108.808 24.4737C109.617 24.4737 110.342 24.6569 110.98 25.0231C111.619 25.3894 112.129 25.9276 112.511 26.632C112.893 27.3364 113.083 28.1986 113.083 29.2186C113.083 30.2385 112.896 31.0838 112.52 31.7938C112.143 32.5039 111.638 33.0477 111 33.4196C110.361 33.7915 109.631 33.9803 108.811 33.9803H108.808ZM108.897 32.8617C109.553 32.8617 110.144 32.7096 110.665 32.4081C111.187 32.1066 111.597 31.6783 111.895 31.1289C112.193 30.5766 112.344 29.9427 112.344 29.2186C112.344 28.4944 112.193 27.8436 111.895 27.2998C111.597 26.756 111.184 26.3305 110.665 26.029C110.144 25.7275 109.555 25.5754 108.897 25.5754C108.239 25.5754 107.673 25.7275 107.157 26.029C106.642 26.3305 106.232 26.756 105.928 27.2998C105.624 27.8436 105.47 28.4832 105.47 29.2186C105.47 29.954 105.624 30.5766 105.928 31.1289C106.232 31.6811 106.642 32.1066 107.157 32.4081C107.673 32.7096 108.253 32.8617 108.897 32.8617ZM112.38 33.893V31.0866L112.503 29.2045L112.327 27.3223V20.7122H113.576V33.8958H112.38V33.893Z" fill="#AEAEAE"/>
<path d="M120.977 33.9803C120.015 33.9803 119.173 33.7746 118.445 33.3689C117.718 32.9603 117.149 32.3968 116.739 31.6811C116.329 30.9655 116.123 30.1427 116.123 29.2214C116.123 28.3 116.318 27.4801 116.711 26.7701C117.104 26.06 117.642 25.4993 118.328 25.0908C119.014 24.6822 119.784 24.4765 120.64 24.4765C121.496 24.4765 122.277 24.6738 122.951 25.071C123.626 25.4683 124.156 26.0234 124.544 26.7419C124.931 27.4576 125.124 28.2859 125.124 29.2214C125.124 29.2805 125.121 29.3425 125.115 29.4073C125.11 29.4721 125.107 29.5398 125.107 29.613H117.071V28.6719H124.438L123.944 29.0439C123.944 28.3676 123.799 27.7675 123.515 27.2406C123.228 26.7137 122.837 26.3023 122.346 26.0065C121.853 25.7106 121.284 25.5613 120.64 25.5613C119.996 25.5613 119.438 25.7106 118.933 26.0065C118.429 26.3023 118.035 26.7165 117.757 27.2491C117.475 27.7816 117.336 28.393 117.336 29.0805V29.2749C117.336 29.9849 117.492 30.6105 117.801 31.1486C118.111 31.6868 118.546 32.1066 119.103 32.4109C119.661 32.7152 120.297 32.8645 121.011 32.8645C121.574 32.8645 122.098 32.7631 122.583 32.563C123.069 32.363 123.49 32.0531 123.841 31.6389L124.544 32.456C124.134 32.9547 123.621 33.3323 123.004 33.5943C122.388 33.8563 121.713 33.9859 120.974 33.9859L120.977 33.9803Z" fill="#AEAEAE"/>
<path d="M131.353 33.9803C130.475 33.9803 129.686 33.7803 128.988 33.3773C128.291 32.9744 127.742 32.4137 127.343 31.698C126.945 30.9824 126.747 30.154 126.747 29.2186C126.747 28.2831 126.945 27.4407 127.343 26.7306C127.742 26.0206 128.289 25.4655 128.988 25.0682C129.686 24.6709 130.475 24.4737 131.353 24.4737C132.162 24.4737 132.887 24.6569 133.525 25.0231C134.164 25.3894 134.674 25.9276 135.056 26.632C135.438 27.3364 135.628 28.1986 135.628 29.2186C135.628 30.2385 135.441 31.0838 135.065 31.7938C134.688 32.5039 134.183 33.0477 133.545 33.4196C132.906 33.7915 132.176 33.9803 131.356 33.9803H131.353ZM131.442 32.8617C132.098 32.8617 132.689 32.7096 133.21 32.4081C133.732 32.1066 134.142 31.6783 134.44 31.1289C134.738 30.5795 134.889 29.9427 134.889 29.2186C134.889 28.4944 134.738 27.8436 134.44 27.2998C134.142 26.756 133.729 26.3305 133.21 26.029C132.689 25.7275 132.1 25.5754 131.442 25.5754C130.784 25.5754 130.218 25.7275 129.702 26.029C129.186 26.3305 128.777 26.756 128.473 27.2998C128.169 27.8436 128.015 28.4832 128.015 29.2186C128.015 29.954 128.169 30.5766 128.473 31.1289C128.777 31.6811 129.186 32.1066 129.702 32.4081C130.218 32.7096 130.798 32.8617 131.442 32.8617ZM134.925 33.893V31.0866L135.048 29.2045L134.872 27.3223V20.7122H136.121V33.8958H134.925V33.893Z" fill="#AEAEAE"/>
<path d="M147.863 34C146.948 34 146.073 33.8479 145.234 33.5464C144.394 33.2449 143.747 32.8561 143.29 32.3827L143.8 31.3712C144.233 31.7967 144.818 32.1573 145.549 32.4475C146.282 32.7377 147.052 32.8814 147.86 32.8814C148.669 32.8814 149.263 32.7828 149.751 32.5884C150.236 32.394 150.596 32.1291 150.824 31.7967C151.053 31.4642 151.167 31.0979 151.167 30.695C151.167 30.2103 151.028 29.8187 150.755 29.5229C150.479 29.227 150.119 28.9931 149.673 28.8213C149.227 28.6494 148.736 28.4972 148.195 28.3676C147.657 28.238 147.116 28.0971 146.578 27.9506C146.039 27.8041 145.543 27.6041 145.091 27.3561C144.64 27.1082 144.277 26.7785 144.001 26.37C143.725 25.9614 143.588 25.4261 143.588 24.7611C143.588 24.144 143.75 23.5805 144.071 23.0649C144.394 22.5493 144.888 22.1351 145.557 21.8223C146.226 21.5096 147.082 21.3518 148.125 21.3518C148.817 21.3518 149.503 21.4504 150.183 21.6448C150.863 21.8393 151.449 22.1097 151.943 22.4535L151.502 23.5016C150.975 23.1466 150.415 22.8846 149.823 22.7183C149.232 22.5521 148.661 22.4704 148.108 22.4704C147.37 22.4704 146.759 22.5718 146.279 22.7719C145.8 22.9719 145.443 23.2424 145.214 23.5805C144.985 23.9186 144.871 24.299 144.871 24.7273C144.871 25.2147 145.008 25.6036 145.284 25.8994C145.56 26.1953 145.922 26.4263 146.374 26.5925C146.826 26.7588 147.319 26.9053 147.86 27.0377C148.398 27.1673 148.937 27.311 149.469 27.4632C150.002 27.6182 150.495 27.8154 150.947 28.0577C151.399 28.3 151.761 28.624 152.037 29.027C152.313 29.4299 152.45 29.9568 152.45 30.6076C152.45 31.2106 152.286 31.7713 151.957 32.2869C151.628 32.8025 151.128 33.2167 150.454 33.5295C149.779 33.8422 148.914 34 147.86 34H147.863Z" fill="#AEAEAE"/>
<path d="M158.786 33.9803C157.893 33.9803 157.093 33.7746 156.385 33.3689C155.676 32.9603 155.116 32.3968 154.706 31.6811C154.296 30.9655 154.09 30.1427 154.09 29.2214C154.09 28.3 154.293 27.4632 154.706 26.7503C155.116 26.0403 155.674 25.4824 156.376 25.0795C157.079 24.6766 157.882 24.4765 158.786 24.4765C159.689 24.4765 160.512 24.6766 161.22 25.0795C161.928 25.4824 162.486 26.0375 162.89 26.7503C163.295 27.4604 163.498 28.2859 163.498 29.2214C163.498 30.1568 163.295 30.9655 162.89 31.6811C162.486 32.3968 161.925 32.9603 161.212 33.3689C160.495 33.7774 159.686 33.9803 158.786 33.9803ZM158.786 32.8617C159.455 32.8617 160.046 32.7096 160.562 32.4081C161.078 32.1066 161.485 31.6783 161.783 31.1289C162.082 30.5795 162.232 29.9427 162.232 29.2186C162.232 28.4944 162.082 27.8436 161.783 27.2998C161.485 26.756 161.078 26.3305 160.562 26.029C160.046 25.7275 159.46 25.5754 158.802 25.5754C158.144 25.5754 157.559 25.7275 157.043 26.029C156.527 26.3305 156.117 26.756 155.813 27.2998C155.509 27.8436 155.356 28.4832 155.356 29.2186C155.356 29.9539 155.509 30.5766 155.813 31.1289C156.117 31.6811 156.527 32.1066 157.043 32.4081C157.559 32.7096 158.139 32.8617 158.783 32.8617H158.786Z" fill="#AEAEAE"/>
<path d="M166.047 33.8929V20.7094H167.296V33.8929H166.047Z" fill="#AEAEAE"/>
<path d="M174.593 33.9803C173.807 33.9803 173.121 33.8338 172.535 33.5351C171.95 33.2393 171.495 32.7941 171.172 32.2024C170.848 31.6107 170.689 30.8697 170.689 29.9821V24.5639H171.939V29.8412C171.939 30.8359 172.181 31.5853 172.669 32.0897C173.154 32.594 173.838 32.8448 174.719 32.8448C175.363 32.8448 175.923 32.7124 176.397 32.4447C176.871 32.177 177.234 31.791 177.488 31.281C177.739 30.771 177.867 30.1624 177.867 29.4496V24.5639H179.116V33.893H177.92V31.3346L178.112 31.7967C177.82 32.4842 177.365 33.0195 176.749 33.4055C176.133 33.7915 175.416 33.9831 174.596 33.9831L174.593 33.9803Z" fill="#AEAEAE"/>
<path d="M181.152 25.612V24.5639H186.868V25.612H181.152ZM185.513 33.9803C184.646 33.9803 183.977 33.7436 183.508 33.2702C183.04 32.7969 182.805 32.1263 182.805 31.2613V22.5014H184.055V31.1909C184.055 31.7347 184.191 32.1573 184.467 32.4531C184.743 32.749 185.139 32.8983 185.655 32.8983C186.207 32.8983 186.662 32.7377 187.027 32.4193L187.468 33.3266C187.222 33.552 186.927 33.7182 186.581 33.8253C186.235 33.9324 185.881 33.9859 185.516 33.9859L185.513 33.9803Z" fill="#AEAEAE"/>
<path d="M190.368 22.5014C190.108 22.5014 189.894 22.414 189.718 22.2337C189.542 22.0534 189.453 21.8421 189.453 21.5941C189.453 21.3462 189.542 21.1348 189.718 20.963C189.894 20.7911 190.111 20.7066 190.368 20.7066C190.624 20.7066 190.842 20.7883 191.017 20.9545C191.193 21.1208 191.282 21.3264 191.282 21.5772C191.282 21.828 191.196 22.0562 191.029 22.2337C190.859 22.4112 190.638 22.5014 190.371 22.5014H190.368ZM189.735 33.8901V24.5611H190.984V33.8901H189.735Z" fill="#AEAEAE"/>
<path d="M198.228 33.9803C197.336 33.9803 196.536 33.7746 195.828 33.3689C195.119 32.9603 194.559 32.3968 194.149 31.6811C193.739 30.9655 193.533 30.1427 193.533 29.2214C193.533 28.3 193.736 27.4632 194.149 26.7503C194.559 26.0403 195.117 25.4824 195.819 25.0795C196.522 24.6766 197.325 24.4765 198.228 24.4765C199.132 24.4765 199.955 24.6766 200.663 25.0795C201.371 25.4824 201.929 26.0375 202.333 26.7503C202.737 27.4604 202.941 28.2859 202.941 29.2214C202.941 30.1568 202.737 30.9655 202.333 31.6811C201.929 32.3968 201.368 32.9603 200.654 33.3689C199.938 33.7774 199.129 33.9803 198.228 33.9803ZM198.228 32.8617C198.898 32.8617 199.489 32.7096 200.005 32.4081C200.521 32.1066 200.928 31.6783 201.226 31.1289C201.524 30.5766 201.675 29.9427 201.675 29.2186C201.675 28.4944 201.524 27.8436 201.226 27.2998C200.928 26.756 200.521 26.3305 200.005 26.029C199.489 25.7275 198.903 25.5754 198.245 25.5754C197.587 25.5754 197.002 25.7275 196.486 26.029C195.97 26.3305 195.56 26.756 195.256 27.2998C194.952 27.8436 194.799 28.4832 194.799 29.2186C194.799 29.9539 194.952 30.5766 195.256 31.1289C195.56 31.6811 195.97 32.1066 196.486 32.4081C197.002 32.7096 197.582 32.8617 198.226 32.8617H198.228Z" fill="#AEAEAE"/>
<path d="M210.202 24.4737C210.952 24.4737 211.61 24.6202 212.182 24.9076C212.751 25.1978 213.197 25.6402 213.517 26.2319C213.841 26.8236 214 27.5702 214 28.4719V33.8901H212.751V28.5958C212.751 27.6125 212.508 26.8687 212.02 26.3671C211.532 25.8628 210.852 25.612 209.971 25.612C209.312 25.612 208.741 25.7444 208.256 26.0121C207.768 26.2798 207.394 26.663 207.129 27.1673C206.864 27.6717 206.733 28.2775 206.733 28.9875V33.8929H205.484V24.5639H206.68V27.1222L206.488 26.6432C206.781 25.967 207.249 25.4373 207.893 25.0541C208.537 24.6681 209.307 24.4765 210.196 24.4765L210.202 24.4737Z" fill="#AEAEAE"/>
</g>
<defs>
<linearGradient id="paint0_linear_6_776" x1="18.4205" y1="34.6819" x2="18.4205" y2="1.01152" gradientUnits="userSpaceOnUse">
<stop stop-color="#1C75BC"/>
<stop offset="0.13" stop-color="#2384B9"/>
<stop offset="0.72" stop-color="#47C7AD"/>
<stop offset="1" stop-color="#55E2A9"/>
</linearGradient>
<clipPath id="clip0_6_776">
<rect width="214" height="34" fill="white"/>
</clipPath>
</defs>
</svg>
