<svg width="24" height="24" viewBox="0 0 24 24" fill="none" xmlns="http://www.w3.org/2000/svg">
<path d="M7.5 2.5C7.5 1.94772 7.05228 1.5 6.5 1.5C5.94772 1.5 5.5 1.94772 5.5 2.5V3.5C5.5 4.05228 5.94772 4.5 6.5 4.5C7.05228 4.5 7.5 4.05228 7.5 3.5V2.5Z" fill="#1CB098"/>
<path d="M18.5 2.5C18.5 1.94772 18.0523 1.5 17.5 1.5C16.9477 1.5 16.5 1.94772 16.5 2.5V3.5C16.5 4.05228 16.9477 4.5 17.5 4.5C18.0523 4.5 18.5 4.05228 18.5 3.5V2.5Z" fill="#1CB098"/>
<path d="M2 9V20.5C2 21.6045 2.8955 22.5 4 22.5H20C21.1045 22.5 22 21.6045 22 20.5V9H2ZM8 19C8 19.5525 7.5525 20 7 20H6C5.4475 20 5 19.5525 5 19V18C5 17.4475 5.4475 17 6 17H7C7.5525 17 8 17.4475 8 18V19ZM8 13.5C8 14.0525 7.5525 14.5 7 14.5H6C5.4475 14.5 5 14.0525 5 13.5V12.5C5 11.9475 5.4475 11.5 6 11.5H7C7.5525 11.5 8 11.9475 8 12.5V13.5ZM13.5 19C13.5 19.5525 13.0525 20 12.5 20H11.5C10.9475 20 10.5 19.5525 10.5 19V18C10.5 17.4475 10.9475 17 11.5 17H12.5C13.0525 17 13.5 17.4475 13.5 18V19ZM13.5 13.5C13.5 14.0525 13.0525 14.5 12.5 14.5H11.5C10.9475 14.5 10.5 14.0525 10.5 13.5V12.5C10.5 11.9475 10.9475 11.5 11.5 11.5H12.5C13.0525 11.5 13.5 11.9475 13.5 12.5V13.5ZM19 19C19 19.5525 18.5525 20 18 20H17C16.4475 20 16 19.5525 16 19V18C16 17.4475 16.4475 17 17 17H18C18.5525 17 19 17.4475 19 18V19ZM19 13.5C19 14.0525 18.5525 14.5 18 14.5H17C16.4475 14.5 16 14.0525 16 13.5V12.5C16 11.9475 16.4475 11.5 17 11.5H18C18.5525 11.5 19 11.9475 19 12.5V13.5Z" fill="#1CB098"/>
<path d="M22 8V5C22 3.8955 21.1045 3 20 3H19.5V3.5C19.5 4.603 18.603 5.5 17.5 5.5C16.397 5.5 15.5 4.603 15.5 3.5V3H8.5V3.5C8.5 4.603 7.603 5.5 6.5 5.5C5.397 5.5 4.5 4.603 4.5 3.5V3H4C2.8955 3 2 3.8955 2 5V8H22Z" fill="#1CB098"/>
</svg>
