<svg width="24" height="24" viewBox="0 0 24 24" fill="none" xmlns="http://www.w3.org/2000/svg">
<g clip-path="url(#clip0_380_35)">
<path d="M12 3.457C11.586 3.457 11.25 3.121 11.25 2.707V0.75C11.25 0.336 11.586 0 12 0C12.414 0 12.75 0.336 12.75 0.75V2.707C12.75 3.121 12.414 3.457 12 3.457Z" fill="#1CB098"/>
<path d="M18.571 6.179C18.379 6.179 18.187 6.106 18.041 5.959C17.748 5.666 17.748 5.191 18.041 4.898L19.425 3.514C19.718 3.221 20.193 3.221 20.486 3.514C20.779 3.807 20.779 4.282 20.486 4.575L19.102 5.959C18.955 6.105 18.763 6.179 18.571 6.179Z" fill="#1CB098"/>
<path d="M23.25 12.75H21.293C20.879 12.75 20.543 12.414 20.543 12C20.543 11.586 20.879 11.25 21.293 11.25H23.25C23.664 11.25 24 11.586 24 12C24 12.414 23.664 12.75 23.25 12.75Z" fill="#1CB098"/>
<path d="M19.955 20.705C19.763 20.705 19.571 20.632 19.425 20.485L18.041 19.101C17.748 18.808 17.748 18.333 18.041 18.04C18.334 17.747 18.809 17.747 19.102 18.04L20.486 19.424C20.779 19.717 20.779 20.192 20.486 20.485C20.339 20.632 20.147 20.705 19.955 20.705Z" fill="#1CB098"/>
<path d="M4.04492 20.705C3.85292 20.705 3.66092 20.632 3.51492 20.485C3.22192 20.192 3.22192 19.717 3.51492 19.424L4.89892 18.04C5.19192 17.747 5.66692 17.747 5.95992 18.04C6.25292 18.333 6.25292 18.808 5.95992 19.101L4.57592 20.485C4.42892 20.632 4.23692 20.705 4.04492 20.705Z" fill="#1CB098"/>
<path d="M2.707 12.75H0.75C0.336 12.75 0 12.414 0 12C0 11.586 0.336 11.25 0.75 11.25H2.707C3.121 11.25 3.457 11.586 3.457 12C3.457 12.414 3.121 12.75 2.707 12.75Z" fill="#1CB098"/>
<path d="M5.42892 6.179C5.23692 6.179 5.04492 6.106 4.89892 5.959L3.51492 4.575C3.22192 4.282 3.22192 3.807 3.51492 3.514C3.80792 3.221 4.28292 3.221 4.57592 3.514L5.95992 4.898C6.25292 5.191 6.25292 5.666 5.95992 5.959C5.81192 6.105 5.62092 6.179 5.42892 6.179Z" fill="#1CB098"/>
<path d="M15 21V22.25C15 23.21 14.21 24 13.25 24H10.75C9.91 24 9 23.36 9 21.96V21H15Z" fill="#1CB098"/>
<path d="M16.4101 6.55997C14.7701 5.22997 12.6101 4.70997 10.5001 5.15997C7.85006 5.70997 5.70006 7.86997 5.15006 10.52C4.59006 13.24 5.61006 15.94 7.79006 17.59C8.38006 18.03 8.79006 18.71 8.93006 19.5V19.51C8.95006 19.5 8.98006 19.5 9.00006 19.5H15.0001C15.0201 19.5 15.0301 19.5 15.0501 19.51V19.5C15.1901 18.74 15.6401 18.04 16.3301 17.5C18.0201 16.16 19.0001 14.16 19.0001 12C19.0001 9.87997 18.0601 7.89997 16.4101 6.55997ZM15.7501 12.5C15.3401 12.5 15.0001 12.16 15.0001 11.75C15.0001 10.23 13.7701 8.99997 12.2501 8.99997C11.8401 8.99997 11.5001 8.65997 11.5001 8.24997C11.5001 7.83997 11.8401 7.49997 12.2501 7.49997C14.5901 7.49997 16.5001 9.40997 16.5001 11.75C16.5001 12.16 16.1601 12.5 15.7501 12.5Z" fill="#1CB098"/>
<path d="M8.92993 19.5H8.99993C8.97993 19.5 8.94993 19.5 8.92993 19.51V19.5Z" fill="#1CB098"/>
<path d="M15.05 19.5V19.51C15.03 19.5 15.02 19.5 15 19.5H15.05Z" fill="#1CB098"/>
</g>
<defs>
<clipPath id="clip0_380_35">
<rect width="24" height="24" fill="white"/>
</clipPath>
</defs>
</svg>
