<svg width="28" height="24" viewBox="0 0 28 24" fill="none" xmlns="http://www.w3.org/2000/svg">
<path fill-rule="evenodd" clip-rule="evenodd" d="M27.5757 13.3659C27.81 13.3659 28 13.553 28 13.7837C28 14.0143 27.81 14.2014 27.5757 14.2014H26.3294C26.0951 14.2014 25.9051 14.0143 25.9051 13.7837C25.9051 13.553 26.0951 13.3659 26.3294 13.3659H27.5757ZM5.35228 23.6158V17.2337C5.35228 17.0231 5.17578 16.8494 4.96202 16.8494H3.05535C2.84152 16.8494 2.66508 17.0232 2.66508 17.2337V23.6158C2.66508 23.8263 2.84158 24 3.05535 24H4.96202C5.17578 24 5.35228 23.8263 5.35228 23.6158ZM15.6722 17.8662H11.076V17.8657C11.0399 17.8657 11.0032 17.8612 10.9666 17.8515C9.25864 17.402 7.92241 17.3475 6.25215 17.4986C6.22292 17.5012 6.20075 17.5252 6.20075 17.5541V22.8648C6.20075 22.8941 6.22352 22.9182 6.25318 22.9203C6.56051 22.9426 6.87581 22.9681 7.20319 22.997C10.5886 23.2956 13.7782 24.599 17.0533 23.3074C17.7673 23.0258 18.4593 22.6545 19.3162 22.1675L19.3166 22.1682L25.7263 17.7587C25.7267 17.7584 25.727 17.7582 25.7275 17.7579C25.7344 17.7534 25.7414 17.7491 25.7486 17.745C26.4511 17.3456 26.3328 16.2865 25.5251 16.0734C25.294 16.0124 25.0404 16.0371 24.8202 16.1623L19.2796 19.3117C19.2675 19.3186 19.1908 19.3639 19.0949 19.42C18.9142 19.5257 15.893 20.6283 15.6723 20.6283H11.0761C10.8418 20.6283 10.6518 20.4413 10.6518 20.2106C10.6518 19.9799 10.8418 19.7929 11.0761 19.7929H15.6723C16.5385 19.7929 16.9819 18.759 16.363 18.1496C16.1854 17.9747 15.9409 17.8662 15.6722 17.8662ZM19.7433 8.94822C19.7433 8.58486 19.4398 8.28603 19.0707 8.28603H8.92932C8.56026 8.28603 8.25674 8.5848 8.25674 8.94822V9.73131C8.25674 9.75236 8.26773 9.77044 8.28658 9.78037L13.2064 12.3753C13.7174 12.6448 14.2826 12.6448 14.7936 12.3753L19.7134 9.78037C19.7323 9.77044 19.7433 9.75236 19.7433 9.73131V8.94822ZM16.937 7.395V6.48286C16.937 5.77744 16.3523 5.20171 15.6357 5.20171H12.3643C11.6477 5.20171 11.063 5.77738 11.063 6.48286V7.395C11.063 7.42569 11.0884 7.45066 11.1196 7.45066H11.855C11.8861 7.45066 11.9115 7.42569 11.9115 7.395V6.48286C11.9115 6.23856 12.1161 6.03714 12.3642 6.03714H15.6356C15.8838 6.03714 16.0884 6.23856 16.0884 6.48286V7.395C16.0884 7.42569 16.1137 7.45066 16.1449 7.45066H16.8803C16.9116 7.45066 16.937 7.42569 16.937 7.395ZM19.66 10.7526C19.678 10.7431 19.6982 10.7435 19.7157 10.7539C19.7332 10.7642 19.7432 10.7815 19.7432 10.8016V15.3345C19.7432 15.6979 19.4397 15.9967 19.0706 15.9967H8.92932C8.56026 15.9967 8.25674 15.6979 8.25674 15.3345V10.8016C8.25674 10.7815 8.2667 10.7642 8.28422 10.7539C8.3018 10.7435 8.32197 10.7431 8.33997 10.7526L12.8086 13.1095C13.5754 13.514 14.4245 13.514 15.1913 13.1095L19.66 10.7526ZM0.424268 14.2014C0.189966 14.2014 0 14.0143 0 13.7837C0 13.553 0.189966 13.3659 0.424268 13.3659H1.67062C1.90492 13.3659 2.09488 13.553 2.09488 13.7837C2.09488 14.0143 1.90492 14.2014 1.67062 14.2014H0.424268ZM2.03261 7.46125C1.83038 7.34683 1.76062 7.0926 1.87683 6.89344C1.99304 6.69427 2.25127 6.62565 2.45355 6.74007L3.53295 7.35361C3.73518 7.46803 3.80494 7.72226 3.68873 7.92142C3.57251 8.12052 3.31429 8.18921 3.112 8.07479L2.03261 7.46125ZM6.84585 2.41725C6.72873 2.21814 6.79771 1.96314 7 1.84783C7.20229 1.73252 7.46123 1.80043 7.57836 1.99959L8.20153 3.06231C8.31865 3.26141 8.24967 3.51642 8.04738 3.63173C7.84515 3.74704 7.58615 3.67912 7.46903 3.47996L6.84585 2.41725ZM13.5757 0.417712C13.5757 0.187031 13.7657 0 14 0C14.2343 0 14.4243 0.187031 14.4243 0.417712V1.6448C14.4243 1.87548 14.2343 2.06251 14 2.06251C13.7657 2.06251 13.5757 1.87548 13.5757 1.6448V0.417712ZM20.4216 1.99953C20.5388 1.80043 20.7978 1.73246 21 1.84777C21.2023 1.96308 21.2713 2.21808 21.1541 2.41719L20.531 3.4799C20.4139 3.679 20.1548 3.74698 19.9526 3.63167C19.7504 3.51636 19.6814 3.26135 19.7985 3.06225L20.4216 1.99953ZM25.5465 6.74007C25.7487 6.62565 26.007 6.69427 26.1232 6.89344C26.2394 7.09254 26.1697 7.34677 25.9675 7.46125L24.8881 8.07479C24.6858 8.18921 24.4276 8.12058 24.3113 7.92142C24.1951 7.72232 24.2648 7.46809 24.4671 7.35361L25.5465 6.74007Z" fill="#1CB098"/>
</svg>
